<?xml version="1.0" standalone="no"?>
<!DOCTYPE svg PUBLIC "-//W3C//DTD SVG 20010904//EN"
 "http://www.w3.org/TR/2001/REC-SVG-20010904/DTD/svg10.dtd">
<svg version="1.0" xmlns="http://www.w3.org/2000/svg"
 width="1668.000000pt" height="481.000000pt" viewBox="0 0 1668.000000 481.000000"
 preserveAspectRatio="xMidYMid meet">

<g transform="translate(0.000000,481.000000) scale(0.100000,-0.100000)"
fill="#000000" stroke="none">
<path d="M1980 3965 l0 -185 150 0 150 0 0 185 0 185 -150 0 -150 0 0 -185z
m258 3 l3 -128 -111 0 -110 0 0 123 c0 68 3 127 7 131 4 4 52 5 107 4 l101 -3
3 -127z"/>
<path d="M2062 3968 l3 -73 68 -3 67 -3 0 76 0 75 -70 0 -71 0 3 -72z"/>
<path d="M4990 3960 l0 -181 153 3 152 3 3 178 2 177 -155 0 -155 0 0 -180z
m260 0 l0 -131 -107 3 -108 3 -3 114 c-1 63 0 121 2 128 4 10 33 13 111 13
l105 0 0 -130z"/>
<path d="M5080 3960 l0 -81 63 3 62 3 3 78 3 77 -66 0 -65 0 0 -80z"/>
<path d="M4720 3675 l0 -75 -40 0 -40 0 0 -108 c0 -60 3 -184 7 -275 l6 -167
45 0 45 0 -7 40 -6 40 45 0 45 0 0 40 0 40 -45 0 c-44 0 -45 0 -45 34 0 41 10
46 101 46 l69 0 0 40 0 40 91 0 90 0 -3 38 c-3 36 -4 37 -45 40 l-43 3 0 52
c0 85 -7 97 -50 97 -36 0 -38 2 -44 40 -6 39 -7 40 -46 40 -39 0 -40 1 -40 35
0 35 0 35 -45 35 l-45 0 0 -75z m178 -112 c-3 -37 -4 -38 -45 -41 -43 -3 -43
-3 -43 -43 0 -39 0 -39 -40 -39 l-40 0 0 40 0 40 40 0 40 0 0 40 0 40 46 0 45
0 -3 -37z"/>
<path d="M11752 3508 l3 -183 150 0 150 0 0 180 0 180 -153 3 -152 3 2 -183z
m258 2 l0 -131 -107 3 -108 3 -3 114 c-1 63 0 121 2 128 4 10 33 13 111 13
l105 0 0 -130z"/>
<path d="M11847 3584 c-4 -4 -7 -40 -7 -81 l0 -73 65 0 66 0 -3 78 -3 77 -55
3 c-31 2 -59 0 -63 -4z"/>
<path d="M1810 3621 c0 -61 0 -61 29 -61 23 0 30 -5 33 -22 2 -16 11 -24 29
-26 22 -3 27 2 33 29 5 27 9 31 31 27 21 -5 25 -1 31 28 l6 34 94 0 c94 0 94
0 94 25 0 23 -4 25 -42 25 -24 0 -80 -3 -126 -7 -76 -5 -83 -8 -88 -29 -5 -18
-13 -24 -35 -24 -24 0 -29 4 -29 25 0 15 -6 25 -14 25 -8 0 -21 3 -30 6 -14 5
-16 -3 -16 -55z"/>
<path d="M8540 3450 l0 -180 150 0 150 0 0 180 0 180 -150 0 -150 0 0 -180z
m258 -2 l3 -128 -111 0 -110 0 0 123 c0 68 3 127 7 131 4 4 52 5 107 4 l101
-3 3 -127z"/>
<path d="M8624 3517 c-3 -8 -4 -43 -2 -78 l3 -64 65 0 64 0 0 75 0 75 -62 3
c-46 2 -64 -1 -68 -11z"/>
<path d="M13265 3574 c-6 -2 -9 -34 -7 -78 l4 -75 -43 -3 -44 -3 3 -190 c1
-104 5 -227 8 -272 l6 -83 39 0 c39 0 39 0 39 40 l0 40 40 0 c45 0 56 14 46
55 -5 21 -12 25 -46 25 -40 0 -40 0 -40 40 l0 40 85 0 85 0 0 40 0 40 85 0 85
0 0 40 0 40 -45 0 -45 0 0 80 0 80 -45 0 -45 0 0 -40 c0 -40 0 -40 -39 -40
-32 0 -40 4 -45 23 -10 40 -7 47 23 47 49 0 61 9 61 46 0 34 -1 34 -45 34
l-45 0 0 40 c0 39 -1 40 -32 39 -18 0 -38 -3 -43 -5z m85 -268 c0 -32 -2 -34
-37 -39 -49 -6 -53 -3 -53 39 0 34 0 34 45 34 44 0 45 0 45 -34z"/>
<path d="M14860 3380 c0 -33 -3 -40 -20 -40 -16 0 -20 -7 -20 -35 0 -33 -2
-35 -35 -35 -33 0 -35 2 -35 35 0 28 -4 35 -20 35 -16 0 -20 -7 -20 -35 0 -28
4 -35 20 -35 18 0 20 -7 20 -75 0 -68 2 -75 20 -75 16 0 20 7 20 35 0 33 2 35
35 35 33 0 35 -2 35 -35 0 -28 4 -35 20 -35 18 0 20 -7 20 -75 l0 -75 55 0 55
0 0 -40 c0 -29 -4 -40 -15 -40 -10 0 -15 -11 -15 -35 0 -33 2 -35 35 -35 l35
0 0 190 c0 183 -1 190 -20 190 -17 0 -20 -7 -20 -40 0 -33 -3 -40 -20 -40 -16
0 -20 -7 -20 -35 0 -24 -5 -35 -15 -35 -12 0 -15 15 -15 71 0 62 -2 71 -20 76
-18 5 -20 14 -20 114 0 102 -1 109 -20 109 -17 0 -20 -7 -20 -40z"/>
<path d="M1894 3366 l6 -34 -65 -7 -65 -7 0 -69 0 -69 -65 0 -65 0 0 -30 0
-30 195 0 195 0 0 30 c0 26 -4 30 -27 30 -16 0 -45 3 -65 6 -34 6 -38 10 -38
35 0 31 11 36 85 41 40 3 40 3 43 47 6 84 1 91 -74 91 l-66 0 6 -34z"/>
<path d="M2230 3355 c0 -45 0 -45 35 -45 28 0 35 -4 35 -20 0 -16 -7 -20 -35
-20 -35 0 -35 0 -35 -45 0 -45 0 -45 35 -45 28 0 35 -4 35 -20 0 -16 7 -20 35
-20 35 0 35 0 35 -44 l0 -44 -65 -7 c-55 -6 -65 -10 -65 -26 0 -17 -8 -19 -65
-19 -58 0 -65 2 -65 20 0 16 -7 20 -36 20 -28 0 -35 -3 -32 -17 2 -12 14 -19
36 -21 29 -3 32 -6 32 -38 0 -31 2 -34 30 -34 27 0 30 -3 30 -30 l0 -30 -75 0
-75 0 0 -140 0 -140 -50 0 c-38 0 -50 -4 -50 -15 0 -9 -9 -15 -25 -15 -24 0
-25 -2 -25 -69 0 -69 0 -70 -27 -73 -20 -2 -29 -9 -31 -25 -3 -21 -9 -23 -58
-23 -51 0 -54 -1 -54 -25 0 -21 5 -25 31 -25 26 0 30 -3 27 -22 -2 -17 -11
-24 -30 -26 -20 -2 -28 -9 -28 -23 0 -14 7 -19 30 -19 25 0 30 -4 30 -25 0
-21 -5 -25 -30 -25 -25 0 -30 -4 -30 -25 0 -21 -5 -25 -30 -25 -23 0 -30 -4
-30 -20 0 -18 7 -20 85 -20 84 0 85 0 85 -25 0 -21 5 -25 30 -25 26 0 30 4 30
26 0 22 4 25 28 22 19 -2 28 -9 30 -25 2 -17 10 -23 27 -23 17 0 25 6 27 23 2
16 11 23 31 25 19 2 27 9 27 23 0 17 -8 19 -85 19 l-85 0 0 51 c0 49 1 50 28
47 19 -2 28 -9 30 -25 3 -21 9 -23 58 -23 l54 0 0 44 c0 41 -2 45 -27 48 -20
2 -29 9 -31 26 -3 20 -9 22 -58 22 -51 0 -54 1 -54 25 0 24 3 25 55 25 l55 0
0 45 c0 41 -2 45 -25 45 -23 0 -25 4 -25 45 l0 45 45 0 c38 0 45 3 45 20 0 17
7 20 50 20 43 0 50 3 50 20 0 15 -7 20 -25 20 -25 0 -25 1 -25 80 0 79 0 80
25 80 18 0 25 5 25 20 0 15 7 20 25 20 14 0 25 -4 25 -10 0 -5 16 -10 35 -10
28 0 35 -4 35 -20 0 -16 7 -20 35 -20 28 0 35 4 35 20 0 16 -7 20 -35 20 -28
0 -35 4 -35 20 0 16 7 20 35 20 l35 0 0 75 0 75 30 0 c23 0 30 -4 30 -20 0
-17 7 -20 40 -20 33 0 40 3 40 20 0 16 7 20 35 20 l35 0 0 70 0 70 -35 0 -35
0 0 110 0 110 -40 0 c-33 0 -40 3 -40 20 0 18 -7 20 -70 20 l-70 0 0 -45z
m140 -155 c0 -16 -7 -20 -35 -20 -28 0 -35 4 -35 20 0 16 7 20 35 20 28 0 35
-4 35 -20z m-500 -906 c0 -22 -4 -25 -27 -22 -20 2 -29 9 -31 26 -3 19 1 22
27 22 27 0 31 -4 31 -26z m-60 -139 c0 -20 -5 -25 -25 -25 -20 0 -25 5 -25 25
0 20 5 25 25 25 20 0 25 -5 25 -25z"/>
<path d="M8400 3255 l0 -55 -41 0 -41 0 8 -190 7 -190 -107 0 -106 0 0 -40 c0
-36 -2 -40 -25 -40 l-25 0 0 -160 0 -160 25 0 c23 0 25 -4 25 -40 0 -36 -2
-40 -25 -40 -18 0 -25 -5 -25 -20 0 -15 7 -20 25 -20 18 0 25 -5 25 -20 0 -15
-7 -20 -25 -20 -18 0 -25 -5 -25 -20 0 -15 7 -20 25 -20 18 0 25 5 25 20 0 18
7 20 60 20 53 0 60 2 60 20 0 16 7 20 30 20 23 0 30 -4 30 -20 0 -15 7 -20 25
-20 18 0 25 5 25 20 0 15 -7 20 -25 20 l-25 0 0 100 0 100 25 0 c23 0 25 4 25
40 l0 40 60 0 c53 0 60 2 60 20 0 16 -7 20 -30 20 -23 0 -30 4 -30 20 0 18 -7
20 -60 20 l-60 0 0 40 c0 36 -2 40 -25 40 -18 0 -25 5 -25 20 0 18 7 20 55 20
30 0 55 5 55 10 0 6 16 10 35 10 32 0 35 2 35 30 0 28 2 30 40 30 38 0 40 2
40 30 0 28 -2 30 -39 30 -36 0 -51 11 -51 40 0 5 39 11 88 12 l87 3 -3 28 -3
27 91 0 90 0 0 30 c0 29 -2 30 -45 30 l-45 0 0 55 0 55 -44 0 c-41 0 -45 2
-48 28 -3 24 -7 27 -45 30 -38 3 -43 6 -43 28 0 22 -4 24 -45 24 l-45 0 0 -55z
m180 -85 c0 -29 -2 -30 -45 -30 -41 0 -45 -2 -45 -25 0 -22 -4 -25 -40 -25
-36 0 -40 3 -40 25 0 23 4 25 40 25 38 0 40 2 40 30 0 29 2 30 45 30 43 0 45
-1 45 -30z m-400 -470 l0 -40 55 0 55 0 0 -40 0 -40 -55 0 -55 0 0 -40 c0 -38
2 -40 30 -40 23 0 30 4 30 20 0 15 7 20 25 20 18 0 25 -5 25 -20 0 -15 -7 -20
-25 -20 -24 0 -25 -3 -25 -60 l0 -60 -30 0 c-23 0 -30 4 -30 20 0 16 -7 20
-30 20 l-30 0 0 100 0 100 30 0 c23 0 30 4 30 20 0 16 -7 20 -30 20 -28 0 -30
2 -30 40 0 38 2 40 30 40 28 0 30 -2 30 -40z m60 -380 c0 -18 -7 -20 -60 -20
-53 0 -60 2 -60 20 0 18 7 20 60 20 53 0 60 -2 60 -20z"/>
<path d="M11470 3250 l0 -60 40 0 c38 0 40 -2 40 -30 0 -28 -2 -30 -40 -30
l-40 0 0 -60 0 -60 40 0 c38 0 40 -2 40 -30 0 -28 2 -30 40 -30 l40 0 0 -60 0
-60 -40 0 c-38 0 -40 -2 -40 -30 0 -28 2 -30 40 -30 36 0 40 -2 40 -25 0 -22
4 -25 40 -25 36 0 40 3 40 25 0 23 4 25 40 25 l40 0 0 90 0 90 -40 0 -40 0 0
150 0 150 -40 0 c-38 0 -40 2 -40 30 l0 30 -80 0 -80 0 0 -60z m160 -210 c0
-28 -2 -30 -40 -30 -38 0 -40 2 -40 30 0 28 2 30 40 30 38 0 40 -2 40 -30z"/>
<path d="M4350 2740 l0 -260 30 0 c23 0 30 4 30 20 0 15 7 20 25 20 16 0 25 6
25 15 0 9 9 15 25 15 24 0 25 3 25 55 0 52 1 55 26 55 23 0 25 3 22 33 -2 24
-8 33 -25 35 -18 3 -23 -2 -23 -17 0 -17 -6 -21 -29 -21 -28 0 -29 -2 -24 -35
5 -34 5 -35 -26 -35 l-31 0 0 105 0 105 80 0 c64 0 80 -3 80 -15 0 -9 9 -15
25 -15 24 0 25 -2 25 -70 l0 -70 50 0 c38 0 50 4 50 15 0 9 -9 15 -25 15 -24
0 -25 3 -25 55 l0 55 50 0 c38 0 50 4 50 15 0 11 12 15 50 15 43 0 50 3 50 20
0 18 -7 20 -75 20 -60 0 -75 3 -75 15 0 9 -9 15 -25 15 -22 0 -25 -4 -25 -35
0 -31 -3 -35 -25 -35 -16 0 -25 6 -25 15 0 11 -12 15 -51 15 -42 0 -52 3 -56
20 -4 17 -14 20 -54 20 l-49 0 0 35 c0 31 3 35 25 35 16 0 25 6 25 15 0 11
-12 15 -50 15 l-50 0 0 -260z m100 -176 c0 -10 -7 -14 -22 -12 -32 5 -35 28
-4 28 17 0 26 -5 26 -16z"/>
<path d="M14660 2945 c0 -20 5 -25 25 -25 20 0 25 5 25 25 0 20 -5 25 -25 25
-20 0 -25 -5 -25 -25z"/>
<path d="M12920 2895 c0 -52 -1 -55 -25 -55 l-25 0 0 -225 0 -225 25 0 c24 0
25 -3 25 -55 0 -52 -1 -55 -25 -55 -21 0 -25 -5 -25 -30 0 -25 4 -30 25 -30
20 0 25 -5 25 -25 0 -20 -5 -25 -25 -25 -21 0 -25 -5 -25 -30 0 -25 4 -30 25
-30 21 0 25 5 25 30 0 30 1 30 55 30 52 0 55 1 55 25 0 20 5 25 25 25 20 0 25
-5 25 -25 0 -21 5 -25 30 -25 25 0 30 4 30 25 0 21 -5 25 -30 25 l-30 0 0 140
0 140 30 0 c30 0 30 1 30 55 l0 55 50 0 c49 0 50 1 50 30 0 25 -4 30 -25 30
-21 0 -25 5 -25 30 0 30 -1 30 -55 30 l-55 0 0 55 c0 52 -1 55 -25 55 -20 0
-25 5 -25 25 0 23 3 25 50 25 49 0 50 1 50 30 l0 30 -105 0 -105 0 0 -55z m60
-110 l0 -55 50 0 50 0 0 -60 0 -60 -50 0 -50 0 0 -55 c0 -52 1 -55 25 -55 21
0 25 5 25 30 0 25 4 30 25 30 21 0 25 -5 25 -30 0 -25 -4 -30 -25 -30 -25 0
-25 -1 -25 -80 0 -79 0 -80 -25 -80 -20 0 -25 5 -25 25 0 21 -5 25 -30 25
l-30 0 0 140 0 140 30 0 c27 0 30 3 30 30 0 27 -3 30 -30 30 -30 0 -30 1 -30
55 0 54 0 55 30 55 30 0 30 -1 30 -55z m50 -535 c0 -30 -1 -30 -55 -30 -54 0
-55 0 -55 30 0 30 1 30 55 30 54 0 55 0 55 -30z"/>
<path d="M14660 2830 c0 -29 -1 -30 -50 -30 -47 0 -50 -2 -50 -25 0 -37 -38
-35 -42 3 -2 19 -9 28 -25 30 -20 3 -23 -1 -23 -27 0 -26 4 -31 25 -31 l25 0
0 -140 0 -140 -25 0 c-24 0 -25 -3 -25 -55 l0 -55 -50 0 c-49 0 -50 -1 -50
-30 0 -25 4 -30 25 -30 20 0 25 -5 25 -25 0 -23 3 -25 50 -25 l50 0 0 -60 c0
-53 2 -60 20 -60 15 0 20 -7 20 -25 0 -23 -4 -25 -45 -25 -43 0 -45 -1 -45
-30 l0 -30 95 0 95 0 0 55 c0 52 1 55 25 55 l25 0 0 225 0 225 -25 0 c-24 0
-25 3 -25 55 0 52 1 55 25 55 21 0 25 5 25 30 0 26 -4 30 -26 30 -22 0 -25 4
-22 28 2 19 9 28 26 30 34 5 31 52 -3 52 -21 0 -25 -5 -25 -30z m0 -111 c0
-30 -1 -30 -47 -27 -44 3 -48 5 -51 31 -3 26 -2 27 47 27 50 0 51 -1 51 -31z
m-50 -109 c0 -25 4 -30 25 -30 l25 0 0 -140 0 -140 -25 0 c-20 0 -25 -5 -25
-25 0 -20 5 -25 25 -25 24 0 25 -3 25 -61 0 -57 -1 -60 -22 -57 -20 3 -23 10
-26 61 l-3 57 -44 0 -45 0 0 55 0 55 45 0 45 0 0 55 c0 52 -2 55 -24 55 -19 0
-25 -6 -28 -27 -2 -17 -10 -29 -20 -31 -14 -3 -18 3 -18 27 0 24 4 31 20 31
18 0 20 7 20 78 0 84 3 92 32 92 13 0 18 -8 18 -30z"/>
<path d="M11297 2733 c-4 -3 -7 -15 -7 -25 0 -14 8 -18 40 -18 l40 0 0 -55 0
-55 40 0 40 0 0 -75 0 -75 35 0 c31 0 35 3 35 25 0 23 4 25 40 25 l40 0 0 130
0 130 -40 0 c-36 0 -40 -2 -40 -25 0 -24 -2 -25 -75 -25 -73 0 -75 1 -75 25 0
22 -4 25 -33 25 -19 0 -37 -3 -40 -7z"/>
<path d="M2020 2520 c0 -17 7 -20 50 -20 l50 0 0 -40 c0 -36 3 -40 25 -40 24
0 25 3 25 60 l0 60 -75 0 c-68 0 -75 -2 -75 -20z"/>
<path d="M11227 2513 c-4 -3 -7 -91 -7 -195 l0 -188 -55 0 c-54 0 -55 0 -55
-30 0 -30 1 -30 55 -30 52 0 55 -1 55 -25 0 -24 3 -25 60 -25 l60 0 0 -55 c0
-54 0 -55 30 -55 l30 0 0 80 0 79 -87 3 c-88 3 -88 3 -91 31 -3 27 -3 27 57
27 58 0 61 1 61 24 0 19 -6 25 -27 28 l-28 3 0 110 0 110 28 3 c21 3 27 9 27
28 0 20 5 24 30 24 27 0 30 3 30 30 l0 30 -83 0 c-46 0 -87 -3 -90 -7z"/>
<path d="M11527 2423 c-4 -3 -7 -15 -7 -25 0 -14 8 -18 40 -18 36 0 40 3 40
25 0 22 -4 25 -33 25 -19 0 -37 -3 -40 -7z"/>
<path d="M4383 2413 c-30 -4 -31 -6 -23 -29 16 -41 13 -44 -55 -44 l-65 0 0
-69 0 -68 -37 -7 c-21 -3 -50 -6 -65 -6 -24 0 -28 -4 -28 -30 l0 -30 88 0 c49
0 137 3 195 7 l107 6 0 29 c0 28 -1 28 -59 28 -58 0 -60 1 -66 31 -4 17 -5 32
-3 35 3 2 32 7 66 10 69 8 66 3 56 92 l-7 52 -36 -2 c-20 0 -50 -3 -68 -5z"/>
<path d="M7900 2125 l0 -95 -35 0 c-32 0 -35 -2 -35 -30 l0 -30 -75 0 -75 0 0
-34 c0 -34 1 -35 35 -29 35 6 35 5 35 -31 0 -35 -1 -36 -35 -36 -32 0 -35 -2
-35 -30 0 -28 3 -30 35 -30 32 0 35 -2 35 -30 0 -28 -3 -30 -35 -30 -33 0 -35
-2 -35 -35 0 -33 -2 -35 -35 -35 -32 0 -35 -2 -35 -30 l0 -30 110 0 110 0 0
-30 c0 -28 3 -30 35 -30 32 0 35 2 35 30 0 28 2 30 40 30 38 0 40 -2 40 -30 0
-28 3 -30 35 -30 32 0 35 2 35 30 0 27 3 30 34 30 25 0 35 5 39 19 9 34 -7 40
-113 43 l-105 3 -3 63 -3 62 41 0 c38 0 40 -2 40 -30 l0 -30 70 0 70 0 0 60 0
60 -35 0 c-32 0 -35 2 -35 30 l0 30 -75 0 -75 0 0 -30 c0 -28 -3 -30 -35 -30
-33 0 -35 2 -35 35 0 33 2 35 35 35 32 0 35 2 35 30 l0 30 75 0 75 0 0 60 0
60 -35 0 -35 0 0 65 0 65 -40 0 -40 0 0 -95z m-70 -441 c0 -35 -1 -35 -37 -32
-27 2 -39 8 -41 21 -7 33 6 47 43 47 33 0 35 -2 35 -36z"/>
<path d="M8070 2160 c0 -15 7 -20 25 -20 18 0 25 5 25 20 0 15 -7 20 -25 20
-18 0 -25 -5 -25 -20z"/>
<path d="M14260 2035 l0 -95 -35 0 c-33 0 -35 -2 -35 -35 l0 -35 -65 0 -65 0
0 -30 c0 -27 3 -30 30 -30 27 0 30 -3 30 -30 0 -27 -3 -30 -30 -30 -28 0 -30
-3 -30 -35 0 -32 2 -35 30 -35 27 0 30 -3 30 -30 0 -27 -3 -30 -30 -30 -27 0
-30 -3 -30 -30 0 -28 -3 -30 -35 -30 -32 0 -35 -2 -35 -30 l0 -30 100 0 100 0
0 -35 c0 -33 2 -35 35 -35 32 0 35 2 35 30 0 27 3 30 30 30 27 0 30 -3 30 -30
0 -28 3 -30 35 -30 33 0 35 2 35 35 0 32 2 35 30 35 27 0 30 3 30 30 l0 30
-95 0 -95 0 0 60 0 60 30 0 c27 0 30 -3 30 -30 l0 -30 65 0 65 0 0 65 0 65
-30 0 c-27 0 -30 3 -30 30 l0 30 -65 0 -65 0 0 30 0 30 65 0 65 0 0 65 0 65
-35 0 -35 0 0 65 0 65 -30 0 -30 0 0 -95z m0 -255 c0 -28 -3 -30 -35 -30 -32
0 -35 2 -35 30 0 28 3 30 35 30 32 0 35 -2 35 -30z m-70 -190 c0 -28 -3 -30
-35 -30 -32 0 -35 2 -35 30 0 28 3 30 35 30 32 0 35 -2 35 -30z"/>
<path d="M12585 2114 c-6 -2 -9 -33 -7 -73 4 -70 4 -70 28 -60 41 15 44 12 44
-56 l0 -65 69 0 69 0 7 -65 c6 -64 7 -65 36 -65 l29 0 0 196 0 195 -32 -3
c-33 -3 -33 -3 -36 -65 l-3 -63 -34 0 c-34 0 -35 1 -35 43 0 81 -5 87 -69 86
-31 0 -60 -2 -66 -5z"/>
<path d="M10970 1995 l0 -95 -35 0 c-32 0 -35 -2 -35 -30 l0 -30 -65 0 -65 0
0 -35 c0 -32 2 -35 30 -35 27 0 30 -3 30 -30 0 -27 -3 -30 -30 -30 -27 0 -30
-3 -30 -30 0 -27 3 -30 30 -30 28 0 30 -3 30 -35 0 -32 -2 -35 -30 -35 -27 0
-30 -3 -30 -30 0 -28 -3 -30 -35 -30 -32 0 -35 -2 -35 -30 l0 -30 100 0 100 0
0 -36 c0 -34 1 -35 33 -32 28 3 32 7 35 36 3 28 7 32 33 32 26 0 29 -3 29 -30
0 -28 3 -30 35 -30 32 0 35 2 35 30 0 28 3 30 35 30 32 0 35 2 35 30 l0 30
-100 0 -100 0 0 65 0 65 29 0 c26 0 30 -4 33 -32 l3 -33 65 0 65 0 3 63 3 62
-36 0 c-32 0 -35 2 -35 30 l0 30 -65 0 -65 0 0 35 0 35 65 0 65 0 0 60 0 60
-35 0 -35 0 0 65 0 65 -30 0 -30 0 0 -95z m0 -255 c0 -28 -3 -30 -35 -30 -32
0 -35 2 -35 30 0 28 3 30 35 30 32 0 35 -2 35 -30z m-70 -190 c0 -28 -3 -30
-35 -30 -32 0 -35 2 -35 30 0 28 3 30 35 30 32 0 35 -2 35 -30z"/>
<path d="M4090 2055 c0 -21 5 -25 30 -25 25 0 30 4 30 25 0 21 -5 25 -30 25
-25 0 -30 -4 -30 -25z"/>
<path d="M12870 2025 c0 -20 5 -25 25 -25 20 0 25 5 25 25 0 20 -5 25 -25 25
-20 0 -25 -5 -25 -25z"/>
<path d="M1650 2016 c0 -15 -42 -26 -104 -26 l-42 0 4 -35 4 -35 64 0 c50 0
64 -3 64 -15 0 -10 -10 -15 -30 -15 -23 0 -30 -4 -30 -20 0 -18 7 -20 65 -20
l65 0 0 70 0 70 34 0 c32 0 35 -3 38 -32 l3 -33 63 -3 c57 -3 63 -1 60 15 -2
11 -14 19 -31 21 -38 5 -36 32 3 32 23 0 30 4 30 20 0 19 -7 20 -130 20 -104
0 -130 -3 -130 -14z"/>
<path d="M4100 1945 c0 -24 -3 -25 -60 -25 l-60 0 0 -30 c0 -27 -3 -30 -30
-30 -27 0 -30 3 -30 30 0 25 -4 30 -25 30 -21 0 -25 -5 -25 -30 0 -25 4 -30
25 -30 l25 0 0 -140 0 -140 -25 0 c-24 0 -25 -3 -25 -55 l0 -55 -61 0 c-60 0
-60 0 -57 -27 2 -22 9 -29 31 -31 21 -3 27 -9 27 -28 0 -22 3 -24 55 -24 l55
0 0 55 0 55 60 0 60 0 0 55 c0 54 0 55 -30 55 l-30 0 0 85 0 85 30 0 c27 0 30
-3 30 -30 0 -27 3 -30 30 -30 l31 0 -3 -137 -3 -138 -27 -3 c-22 -3 -28 -9
-28 -28 0 -22 -3 -24 -55 -24 l-55 0 0 -55 c0 -52 1 -55 25 -55 21 0 25 -5 25
-30 0 -30 -1 -30 -55 -30 -55 0 -55 0 -55 -30 l0 -31 113 3 112 3 3 58 c3 53
5 57 27 57 l25 0 0 220 0 220 -25 0 c-24 0 -25 3 -25 55 0 52 1 55 25 55 21 0
25 5 25 30 0 25 -4 30 -25 30 -21 0 -25 5 -25 30 0 25 4 30 25 30 20 0 25 5
25 25 0 20 -5 25 -25 25 -20 0 -25 -5 -25 -25z m0 -115 l0 -30 -60 0 -60 0 0
30 0 30 60 0 60 0 0 -30z m-120 -275 c0 -20 -5 -25 -25 -25 -20 0 -25 5 -25
25 0 20 5 25 25 25 20 0 25 -5 25 -25z m120 -249 c0 -40 -4 -55 -16 -60 -38
-15 -44 -8 -44 54 l0 60 30 0 c30 0 30 -1 30 -54z"/>
<path d="M12538 1753 c-3 -26 -7 -28 -55 -31 -51 -3 -53 -4 -53 -31 0 -20 -6
-30 -20 -34 -13 -3 -20 -14 -20 -30 0 -17 7 -28 20 -32 28 -9 29 -65 1 -65
-21 0 -31 -26 -31 -82 0 -34 3 -38 25 -38 20 0 27 -6 32 -30 4 -23 11 -30 29
-30 19 0 24 5 24 25 0 14 4 25 9 25 5 0 16 3 25 6 14 5 16 -4 16 -60 l0 -66
-50 0 -50 0 0 -90 c0 -89 0 -90 25 -90 24 0 25 3 25 60 l0 60 50 0 50 0 0 139
c0 153 -3 171 -31 171 -14 0 -19 7 -19 25 0 18 -7 28 -25 35 -19 7 -25 17 -25
40 0 29 2 30 45 30 43 0 46 2 52 30 4 23 11 30 29 30 24 0 24 0 24 -120 l0
-120 25 0 25 0 0 150 0 150 -74 0 c-74 0 -75 0 -78 -27z"/>
<path d="M14047 1383 c-4 -3 -7 -17 -7 -30 0 -19 5 -23 30 -23 27 0 30 3 30
30 0 25 -4 30 -23 30 -13 0 -27 -3 -30 -7z"/>
<path d="M7637 1363 c-4 -3 -7 -17 -7 -30 0 -20 5 -23 40 -23 38 0 40 -2 40
-30 0 -28 2 -30 40 -30 38 0 40 -2 40 -30 l0 -30 -80 0 -80 0 0 -30 0 -30
-120 0 -120 0 0 -30 c0 -28 2 -30 40 -30 38 0 40 -2 40 -30 0 -28 2 -30 40
-30 l40 0 0 -60 0 -60 -41 0 c-38 0 -40 -1 -37 -27 3 -24 8 -28 41 -31 35 -3
37 -2 37 27 l0 31 80 0 80 0 0 30 c0 28 -2 30 -40 30 l-40 0 0 60 0 60 40 0
c38 0 40 2 40 30 l0 30 85 0 85 0 0 91 0 90 38 -3 c32 -3 37 -7 40 -30 3 -25
7 -28 43 -28 l39 0 0 60 0 60 -198 0 c-109 0 -202 -3 -205 -7z"/>
<path d="M10746 1315 c-6 -24 -9 -25 -86 -25 l-80 0 0 -29 c0 -57 6 -61 86
-61 72 0 74 -1 74 -25 0 -22 -4 -24 -57 -27 -57 -3 -58 -3 -61 -35 -3 -29 -7
-33 -32 -33 -25 0 -29 4 -32 33 -3 28 -7 32 -35 35 -32 3 -33 2 -33 -32 0 -34
-2 -36 -35 -36 -32 0 -35 -2 -35 -30 l0 -30 100 0 100 0 0 -65 0 -65 -29 0
c-26 0 -30 4 -33 33 l-3 32 -65 0 -65 0 -3 -62 -3 -63 36 0 c32 0 35 -2 35
-30 l0 -30 65 0 65 0 0 -35 0 -35 -65 0 -65 0 0 -60 0 -60 35 0 35 0 0 -65 0
-65 30 0 30 0 0 95 0 95 35 0 c32 0 35 2 35 30 l0 30 65 0 65 0 0 35 c0 33 -2
35 -35 35 -32 0 -35 2 -35 30 0 28 3 30 35 30 32 0 35 2 35 30 0 27 -3 30 -30
30 -28 0 -30 3 -30 35 0 32 2 35 30 35 27 0 30 3 30 30 0 28 3 30 35 30 32 0
35 2 35 30 l0 30 -100 0 c-60 0 -100 4 -100 10 0 6 28 10 65 10 l65 0 0 95 0
95 45 0 45 0 0 -45 0 -45 75 0 c68 0 75 2 75 20 0 16 -7 20 -35 20 -31 0 -35
3 -35 25 0 22 4 25 36 25 31 0 35 3 32 23 -3 22 -6 22 -154 25 l-152 3 -6 -26z
m14 -325 c0 -28 -3 -30 -35 -30 -32 0 -35 2 -35 30 0 28 3 30 35 30 32 0 35
-2 35 -30z m-70 -190 c0 -28 -3 -30 -35 -30 -32 0 -35 2 -35 30 0 28 3 30 35
30 32 0 35 -2 35 -30z"/>
<path d="M14040 1245 c0 -24 -3 -25 -55 -25 -54 0 -55 0 -55 -30 0 -27 -3 -30
-30 -30 -27 0 -30 3 -30 30 0 25 -4 30 -25 30 -21 0 -25 -5 -25 -30 0 -25 4
-30 25 -30 l25 0 0 -140 0 -140 -25 0 c-24 0 -25 -3 -25 -55 l0 -55 -61 0
c-60 0 -60 0 -57 -27 2 -22 9 -29 31 -31 21 -3 27 -9 27 -28 0 -22 3 -24 55
-24 l55 0 0 -55 c0 -54 0 -55 30 -55 27 0 30 -3 30 -30 0 -30 -1 -30 -55 -30
-52 0 -55 -1 -55 -25 l0 -25 115 0 115 0 0 55 c0 54 0 55 -30 55 -30 0 -30 1
-30 55 0 52 1 55 25 55 22 0 25 -5 25 -32 0 -57 10 -78 36 -78 l24 0 0 220 0
220 -30 0 -30 0 0 60 0 60 30 0 c25 0 30 4 30 25 0 21 -5 25 -30 25 -27 0 -30
3 -30 30 0 27 3 30 30 30 25 0 30 4 30 25 0 21 -5 25 -30 25 -25 0 -30 -4 -30
-25z m0 -110 c0 -24 -3 -25 -55 -25 -52 0 -55 1 -55 25 0 24 3 25 55 25 52 0
55 -1 55 -25z m-50 -115 c0 -25 4 -30 25 -30 l25 0 0 -135 0 -135 -25 0 c-21
0 -25 -5 -25 -30 l0 -30 -60 0 -60 0 0 55 0 55 60 0 60 0 0 55 c0 54 0 55 -30
55 -25 0 -30 -4 -30 -25 0 -21 -5 -25 -30 -25 -25 0 -30 4 -30 25 0 21 5 25
30 25 l30 0 0 85 0 85 30 0 c27 0 30 -3 30 -30z"/>
<path d="M780 1220 c0 -36 -2 -40 -25 -40 -22 0 -25 4 -25 35 0 31 -3 35 -25
35 l-26 0 3 -152 c3 -150 3 -153 26 -156 21 -3 22 -8 22 -81 0 -43 2 -80 4
-82 3 -3 23 -3 45 -1 l40 4 3 77 c3 69 5 76 25 79 19 3 22 -2 25 -35 2 -31 7
-39 26 -41 21 -3 22 -1 22 77 l0 81 -95 0 -95 0 0 40 0 40 45 0 45 0 0 80 c0
73 -2 80 -20 80 -17 0 -20 -7 -20 -40z"/>
<path d="M3650 1066 c0 -86 2 -95 20 -101 11 -4 20 -15 20 -27 0 -11 -8 -22
-20 -25 -11 -3 -20 -14 -20 -24 0 -16 8 -19 45 -19 41 0 45 2 45 25 0 18 5 25
20 25 30 0 26 36 -5 44 -16 4 -25 13 -25 26 0 13 -7 20 -20 20 -17 0 -20 7
-20 44 0 63 -11 106 -26 106 -11 0 -14 -21 -14 -94z"/>
<path d="M12140 996 l0 -154 25 -6 c24 -6 25 -9 25 -86 0 -76 1 -80 23 -80 62
1 67 7 67 86 0 72 1 74 25 74 22 0 25 -4 25 -35 0 -31 3 -35 25 -35 24 0 25 2
25 75 l0 75 -95 0 -95 0 0 45 0 45 45 0 45 0 0 75 c0 68 -2 75 -20 75 -16 0
-20 -7 -20 -35 0 -31 -3 -35 -25 -35 -22 0 -25 4 -25 35 0 31 -3 35 -25 35
l-25 0 0 -154z"/>
<path d="M3778 868 c-2 -15 -11 -24 -25 -26 -15 -2 -23 -10 -23 -23 0 -16 7
-19 45 -19 48 0 50 3 39 59 -7 36 -31 42 -36 9z"/>
<path d="M3591 843 l-34 -4 7 -46 c3 -25 6 -56 6 -69 0 -21 5 -24 40 -24 36 0
40 3 40 25 0 18 -5 25 -20 25 -15 0 -20 7 -20 25 0 16 6 25 15 25 9 0 15 9 15
25 0 14 -3 24 -7 23 -5 0 -23 -3 -42 -5z"/>
<path d="M3670 764 c0 -37 4 -47 20 -51 10 -3 22 -14 25 -24 12 -38 35 -21 35
25 0 35 -4 45 -20 49 -12 3 -20 14 -20 26 0 14 -6 21 -20 21 -17 0 -20 -7 -20
-46z"/>
<path d="M7770 755 l0 -45 40 0 40 0 0 -40 0 -40 40 0 40 0 0 40 c0 39 1 40
35 40 l35 0 0 -85 0 -85 40 0 40 0 0 -85 0 -85 40 0 40 0 0 40 0 40 80 0 80 0
0 45 c0 45 0 45 35 45 35 0 35 0 35 45 l0 45 40 0 40 0 0 40 0 40 -75 0 -75 0
0 45 0 45 -275 0 -275 0 0 -45z m470 -85 l0 -40 40 0 40 0 0 -45 0 -45 -40 0
-40 0 0 45 0 45 -40 0 -40 0 0 40 0 40 40 0 40 0 0 -40z"/>
<path d="M357 743 c-9 -8 -9 -66 -1 -115 6 -36 8 -38 45 -38 38 0 39 1 39 35
l0 35 50 0 50 0 0 -35 c0 -35 0 -35 45 -35 l45 0 0 80 0 80 -133 0 c-74 0
-137 -3 -140 -7z"/>
<path d="M3630 658 c0 -59 12 -108 26 -108 8 0 14 9 14 21 0 12 8 23 20 26 13
3 20 14 20 29 0 17 -6 24 -20 24 -13 0 -20 7 -20 20 0 13 -7 20 -20 20 -16 0
-20 -7 -20 -32z"/>
<path d="M8590 565 l0 -115 50 0 c49 0 50 -1 50 -30 0 -30 1 -30 55 -30 l55 0
0 60 0 60 50 0 c47 0 50 2 50 25 0 23 3 25 50 25 l50 0 0 60 0 60 -50 0 c-49
0 -50 -1 -50 -30 l0 -31 -102 3 -103 3 -3 28 c-3 25 -6 27 -53 27 l-49 0 0
-115z m210 -30 c0 -24 -3 -25 -55 -25 -52 0 -55 1 -55 25 0 24 3 25 55 25 52
0 55 -1 55 -25z"/>
<path d="M4620 495 c0 -132 2 -155 15 -155 22 0 35 -42 35 -111 0 -55 2 -59
23 -59 62 1 67 7 67 86 0 72 1 74 25 74 22 0 25 -4 25 -35 0 -31 3 -35 25 -35
24 0 25 2 25 75 l0 75 -95 0 -95 0 0 45 0 45 45 0 45 0 0 75 c0 68 -2 75 -20
75 -14 0 -21 -9 -26 -35 -5 -28 -11 -35 -29 -35 -21 0 -23 3 -18 35 5 33 4 35
-21 35 l-26 0 0 -155z"/>
<path d="M1110 580 c0 -39 1 -40 35 -40 35 0 35 0 35 -45 l0 -45 40 0 40 0 0
45 0 45 40 0 40 0 0 -90 0 -90 40 0 40 0 0 -85 0 -85 40 0 40 0 0 45 0 45 74
0 75 0 3 43 3 42 38 -3 37 -4 0 46 0 46 40 0 40 0 0 45 0 45 -80 0 -80 0 0 40
0 40 -270 0 -270 0 0 -40z m460 -85 c0 -45 0 -45 -35 -45 -35 0 -35 0 -35 45
0 45 0 45 35 45 35 0 35 0 35 -45z m80 -85 c0 -39 -1 -40 -35 -40 -34 0 -35 1
-35 40 0 39 1 40 35 40 34 0 35 -1 35 -40z"/>
<path d="M12050 490 l0 -120 -35 0 c-33 0 -35 -2 -35 -35 0 -32 2 -35 29 -35
36 0 44 -11 36 -50 -5 -25 -12 -30 -36 -30 -27 0 -29 -2 -29 -40 0 -39 1 -40
35 -40 34 0 35 -1 35 -40 0 -38 2 -40 30 -40 l30 0 0 120 0 120 44 0 c65 0 76
-7 76 -46 0 -31 -3 -34 -30 -34 l-30 0 0 -80 0 -80 65 0 65 0 0 40 c0 38 2 40
30 40 l30 0 0 80 0 80 30 0 30 0 0 -80 0 -80 65 0 65 0 0 40 0 40 65 0 65 0 0
35 0 35 -95 0 -95 0 0 39 c0 37 -2 40 -32 43 l-33 3 -3 78 -3 77 -29 0 c-28 0
-30 -2 -30 -40 0 -38 -2 -40 -30 -40 -28 0 -30 2 -30 41 0 39 -1 40 -32 37
-30 -3 -33 -6 -36 -40 -3 -35 -6 -38 -33 -38 -27 0 -29 2 -29 40 0 38 -2 40
-30 40 -28 0 -30 2 -30 40 0 38 -2 40 -30 40 l-30 0 0 -120z m120 -80 c0 -38
-2 -40 -30 -40 -28 0 -30 2 -30 40 0 38 2 40 30 40 28 0 30 -2 30 -40z m190
-75 c0 -32 -2 -35 -30 -35 -28 0 -30 3 -30 35 0 32 2 35 30 35 28 0 30 -3 30
-35z"/>
<path d="M10810 555 c0 -43 2 -45 28 -45 26 0 27 -2 24 -40 -4 -39 -3 -40 27
-40 30 0 31 2 31 40 0 38 1 40 31 40 l32 0 -6 -85 -6 -85 29 0 30 0 0 -90 c0
-89 0 -90 25 -90 23 0 25 4 25 45 l0 45 60 0 60 0 0 45 c0 43 1 45 30 45 29 0
30 2 30 45 0 41 2 45 25 45 22 0 25 4 25 39 l0 40 -52 3 -53 3 -3 43 -3 42
-195 0 -194 0 0 -45z m340 -85 c0 -36 3 -40 25 -40 23 0 25 -4 25 -45 0 -44
-1 -45 -31 -45 l-31 0 6 45 7 45 -30 0 c-29 0 -31 2 -31 40 0 38 2 40 30 40
28 0 30 -2 30 -40z"/>
<path d="M7525 577 c-3 -7 -4 -89 -3 -182 l3 -170 150 0 150 0 0 180 0 180
-148 3 c-114 2 -149 0 -152 -11z m250 -172 l0 -130 -100 0 -100 0 -3 119 c-1
66 0 126 2 133 4 11 29 13 103 11 l98 -3 0 -130z"/>
<path d="M7610 405 l0 -75 65 0 65 0 0 75 0 75 -65 0 -65 0 0 -75z"/>
<path d="M9065 547 c-3 -7 -4 -89 -3 -182 l3 -170 153 -3 152 -3 -2 183 -3
183 -148 3 c-114 2 -149 0 -152 -11z m260 -177 l0 -125 -105 0 -105 0 -3 128
-3 128 108 -3 108 -3 0 -125z"/>
<path d="M9152 373 l3 -78 63 -3 62 -3 0 81 0 80 -65 0 -66 0 3 -77z"/>
<path d="M3260 333 l0 -183 150 0 150 0 -2 181 -3 181 -148 1 -147 2 0 -182z
m258 0 l-3 -128 -105 0 -105 0 -3 128 -3 127 111 0 111 0 -3 -127z"/>
<path d="M3344 397 c-3 -8 -4 -43 -2 -78 l3 -64 65 0 65 0 0 75 0 75 -63 3
c-46 2 -64 -1 -68 -11z"/>
<path d="M5024 511 c-2 -2 -4 -85 -4 -183 l0 -178 155 0 155 0 -2 181 -3 181
-148 1 c-82 1 -151 0 -153 -2z m260 -181 l0 -125 -107 -3 -107 -3 0 131 0 131
107 -3 106 -3 1 -125z"/>
<path d="M5112 333 l3 -78 63 -3 62 -3 0 81 0 80 -65 0 -66 0 3 -77z"/>
<path d="M3820 436 c0 -74 0 -75 28 -78 25 -3 27 -7 30 -50 3 -42 6 -47 30
-50 19 -2 28 -10 30 -25 5 -31 62 -34 62 -3 0 28 60 29 67 1 5 -22 31 -31 86
-31 33 0 37 3 37 24 0 19 7 26 30 31 23 5 30 12 30 31 0 20 -5 24 -30 24 -25
0 -30 4 -30 25 0 25 1 26 63 23 l62 -3 3 -47 3 -48 90 0 c88 0 89 0 89 25 0
24 -2 25 -65 25 l-65 0 0 50 0 50 -149 0 c-147 0 -150 0 -153 -22 -2 -17 -12
-24 -33 -28 -21 -4 -31 -11 -33 -28 -3 -17 -10 -22 -33 -22 -28 0 -29 1 -29
50 0 49 -1 50 -30 50 -25 0 -30 4 -30 25 l0 25 120 0 120 0 0 25 0 25 -150 0
-150 0 0 -74z"/>
<path d="M13460 406 l0 -76 26 10 c41 16 44 13 44 -55 l0 -65 70 0 69 0 3 -62
c3 -63 3 -63 36 -66 l32 -3 0 195 0 196 -29 0 c-25 0 -29 -4 -35 -37 -3 -21
-6 -50 -6 -65 0 -25 -4 -28 -35 -28 l-34 0 -3 63 -3 62 -67 3 -68 3 0 -75z"/>
<path d="M7880 445 c0 -22 4 -25 40 -25 36 0 40 3 40 25 0 23 -4 25 -40 25
-36 0 -40 -2 -40 -25z"/>
<path d="M188 453 c-2 -5 -2 -88 0 -186 l3 -177 149 0 150 0 0 185 0 185 -149
0 c-83 0 -151 -3 -153 -7z m260 -175 l3 -128 -111 0 -110 0 0 123 c0 68 3 127
7 131 4 4 52 5 107 4 l101 -3 3 -127z"/>
<path d="M274 346 c-3 -7 -4 -42 -2 -77 l3 -64 63 -3 62 -3 0 81 0 80 -60 0
c-42 0 -62 -4 -66 -14z"/>
<path d="M1895 447 c-3 -7 -4 -89 -3 -182 l3 -170 150 0 150 0 0 180 0 180
-148 3 c-114 2 -149 0 -152 -11z m253 -170 l3 -128 -108 3 -108 3 -3 114 c-1
63 0 121 2 128 4 11 29 13 108 11 l103 -3 3 -128z"/>
<path d="M1982 278 l3 -73 68 -3 67 -3 0 76 0 75 -70 0 -71 0 3 -72z"/>
<path d="M600 305 l0 -115 50 0 c49 0 50 -1 50 -30 0 -29 1 -30 50 -30 l50 0
0 60 0 60 50 0 c46 0 50 2 50 24 0 23 4 25 53 28 l52 3 3 58 3 57 -56 0 c-54
0 -55 0 -55 -30 l0 -30 -100 0 -100 0 0 30 c0 29 -1 30 -50 30 l-50 0 0 -115z
m200 -30 c0 -23 -3 -25 -50 -25 -47 0 -50 2 -50 25 0 23 3 25 50 25 47 0 50
-2 50 -25z"/>
<path d="M10270 240 l0 -181 153 3 152 3 0 175 0 175 -152 3 -153 3 0 -181z
m260 0 l0 -131 -107 3 -108 3 -3 114 c-1 63 0 121 2 128 4 10 33 13 111 13
l105 0 0 -130z"/>
<path d="M10360 240 l0 -81 63 3 62 3 0 75 0 75 -62 3 -63 3 0 -81z"/>
<path d="M10710 391 c0 -22 -6 -30 -25 -35 -18 -5 -25 -13 -25 -31 0 -20 5
-25 25 -25 21 0 25 -5 25 -29 0 -25 4 -30 28 -33 27 -3 27 -3 30 -90 3 -86 3
-88 27 -88 25 0 25 0 25 101 0 102 -9 139 -35 139 -10 0 -15 10 -15 30 0 23 5
30 19 30 19 0 31 18 31 46 0 10 -14 14 -55 14 -54 0 -55 -1 -55 -29z"/>
<path d="M13888 413 c-2 -5 -4 -84 -3 -178 l0 -170 153 -3 152 -3 0 181 0 180
-149 0 c-83 0 -151 -3 -153 -7z m257 -173 l0 -125 -107 -3 -108 -3 0 131 0
131 108 -3 107 -3 0 -125z"/>
<path d="M13974 306 c-3 -7 -4 -42 -2 -77 l3 -64 63 -3 62 -3 0 81 0 80 -60 0
c-42 0 -62 -4 -66 -14z"/>
<path d="M7880 340 l0 -30 75 0 c73 0 75 -1 75 -25 0 -22 -4 -25 -35 -25 -31
0 -35 -3 -35 -25 0 -22 4 -25 35 -25 32 0 35 -2 35 -30 0 -28 -3 -30 -34 -30
-30 0 -35 3 -38 28 -3 23 -8 27 -40 30 -36 3 -38 2 -38 -27 0 -29 2 -31 40
-31 36 0 40 -2 40 -25 0 -22 4 -25 35 -25 31 0 35 3 35 25 l0 25 190 0 190 0
0 -25 c0 -22 4 -25 35 -25 31 0 35 3 35 25 0 22 -4 25 -35 25 -32 0 -35 2 -35
30 0 28 3 30 35 30 l35 0 0 80 0 80 -34 0 c-30 0 -35 -3 -38 -27 l-3 -28 -112
-3 -113 -3 0 -49 0 -50 -35 0 -35 0 0 50 0 50 -40 0 c-38 0 -40 2 -40 30 l0
30 -75 0 -75 0 0 -30z m530 -105 c0 -24 -2 -25 -75 -25 -73 0 -75 1 -75 25 0
24 2 25 75 25 73 0 75 -1 75 -25z"/>
<path d="M8597 303 c-4 -3 -7 -17 -7 -30 0 -21 -4 -23 -50 -23 l-50 0 0 -60 0
-60 49 0 c47 0 50 -2 53 -27 l3 -28 153 -3 152 -3 0 31 0 30 -100 0 -100 0 0
30 0 30 100 0 100 0 0 30 c0 29 -1 30 -50 30 -49 0 -50 1 -50 30 l0 30 -98 0
c-54 0 -102 -3 -105 -7z m103 -83 c0 -30 -1 -30 -55 -30 -54 0 -55 0 -55 30 0
30 1 30 55 30 54 0 55 0 55 -30z"/>
</g>
</svg>
